<?xml version="1.0" encoding="UTF-8"?>
<svg width="150" height="40" viewBox="0 0 150 40" fill="none" xmlns="http://www.w3.org/2000/svg">
    <!-- Cloud shape -->
    <path d="M25 10c-4.4 0-8 3.6-8 8 0 .4 0 .8.1 1.2C15.7 19.8 15 20.8 15 22c0 1.7 1.3 3 3 3h14c1.7 0 3-1.3 3-3 0-1.2-.7-2.2-1.7-2.7.1-.4.1-.8.1-1.2 0-4.4-3.6-8-8-8z" fill="#673DE6"/>
    <!-- Server icon -->
    <rect x="18" y="17" width="14" height="3" rx="1" fill="white"/>
    <rect x="18" y="22" width="14" height="3" rx="1" fill="white"/>
    <!-- Text -->
    <path d="M45 15h4v15h-4V15zm8 0h4l6 8v-8h4v15h-4l-6-8v8h-4V15zm22 0h12v3h-8v3h7v3h-7v3h8v3H75V15zm20 0h4v12h8v3h-12V15z" fill="#1D1E29"/>
</svg> 