<?xml version="1.0" encoding="UTF-8"?>
<svg width="120" height="24" viewBox="0 0 120 24" fill="none" xmlns="http://www.w3.org/2000/svg">
    <!-- Star -->
    <path d="M12 0L14.6942 8.2918H23.4127L16.3593 13.4164L19.0534 21.7082L12 16.5836L4.94658 21.7082L7.64074 13.4164L0.587322 8.2918H9.30583L12 0Z" fill="#00B67A"/>
    
    <!-- Text -->
    <path d="M36.5 7.5V16.5H34V7.5H36.5ZM47.5 7.5V9.5H43V16.5H40.5V9.5H36V7.5H47.5ZM59 7.5V9.5H52V11H58V13H52V14.5H59V16.5H49.5V7.5H59ZM70.5 7.5V9.5H66V16.5H63.5V9.5H59V7.5H70.5ZM82 7.5V16.5H79.5V13H74V16.5H71.5V7.5H74V11H79.5V7.5H82ZM93.5 7.5V9.5H87V11H93V13H87V14.5H93.5V16.5H84.5V7.5H93.5ZM105 7.5V16.5H102.5V11L99 16.5H98L94.5 11V16.5H92V7.5H94.5L98.5 13.5L102.5 7.5H105Z" fill="#191919"/>
</svg> 