<?xml version="1.0" encoding="UTF-8"?>
<svg width="120" height="32" viewBox="0 0 120 32" fill="none" xmlns="http://www.w3.org/2000/svg">
    <path d="M16 6c5.5 0 10 4.5 10 10s-4.5 10-10 10S6 21.5 6 16 10.5 6 16 6zm0 2c-4.4 0-8 3.6-8 8s3.6 8 8 8 8-3.6 8-8-3.6-8-8-8zm-.4 3.6h.8c2.2 0 4 1.8 4 4v1.6c0 2.2-1.8 4-4 4h-.8c-2.2 0-4-1.8-4-4v-1.6c0-2.2 1.8-4 4-4z" fill="#21759B"/>
    <path d="M45 11h3.6l2.8 10.5L54.2 11h3.6l-4.4 15h-4L45 11zm22.4 0H78v3h-7.1v3h6.5v3h-6.5v3H78v3H67.4V11zm18.4 0h3.5v12h7.3v3H85.8V11z" fill="#464646"/>
</svg> 