<?xml version="1.0" encoding="UTF-8" standalone="no"?>
<svg xmlns="http://www.w3.org/2000/svg" width="45" height="45">
  <g fill="#fff" stroke="#000" stroke-width="1.5" stroke-linecap="round" stroke-linejoin="round">
    <path d="M9 36h27v-3H9v3zM12 36v-4h21v4H12zM11 14V9h4v2h5V9h5v2h5V9h4v5" stroke-linecap="butt"/>
    <path d="M34 14L31 17 14 17 11 14" stroke-linecap="butt"/>
    <path d="M31 17v10.5H14V17" stroke-linecap="butt"/>
    <path d="M31 29.5l1.5 2.5h-20l1.5-2.5" stroke-linecap="butt"/>
    <path d="M11 14h23" fill="none" stroke-linejoin="miter"/>
    <circle cx="22.5" cy="9" r="2" fill="#fff" stroke="#000"/>
    <path d="M20 7h5M20 11h5" stroke-linecap="butt"/>
    <path d="M22.5 7v4" stroke-linecap="butt"/>
  </g>
</svg> 