<?xml version="1.0" encoding="UTF-8"?>
<svg xmlns="http://www.w3.org/2000/svg" width="1200" height="630" viewBox="0 0 1200 630">
  <defs>
    <linearGradient id="bg" x1="0" y1="0" x2="1" y2="1">
      <stop offset="0%" stop-color="#0a0a14"/>
      <stop offset="100%" stop-color="#0a140a"/>
    </linearGradient>
    <radialGradient id="glow" cx="0.5" cy="0.45" r="0.5">
      <stop offset="0%" stop-color="#0a140a" stop-opacity="0.3"/>
      <stop offset="100%" stop-color="#0a0a14" stop-opacity="0"/>
    </radialGradient>
    <linearGradient id="titleGrad" x1="0" y1="0" x2="1" y2="0">
      <stop offset="0%" stop-color="#0074D9"/>
      <stop offset="100%" stop-color="#7D00FF"/>
    </linearGradient>
  </defs>
  
  <!-- Background -->
  <rect width="1200" height="630" fill="url(#bg)"/>
  <rect width="1200" height="630" fill="url(#glow)"/>
  
  <!-- Grid pattern -->
  <circle cx="50" cy="50" r="1" fill="rgba(255,255,255,0.03)"/><circle cx="50" cy="130" r="1" fill="rgba(255,255,255,0.05)"/><circle cx="50" cy="210" r="1" fill="rgba(255,255,255,0.07)"/><circle cx="50" cy="290" r="1" fill="rgba(255,255,255,0.03)"/><circle cx="50" cy="370" r="1" fill="rgba(255,255,255,0.05)"/><circle cx="50" cy="450" r="1" fill="rgba(255,255,255,0.07)"/><circle cx="50" cy="530" r="1" fill="rgba(255,255,255,0.03)"/><circle cx="50" cy="610" r="1" fill="rgba(255,255,255,0.05)"/><circle cx="150" cy="50" r="1" fill="rgba(255,255,255,0.05)"/><circle cx="150" cy="130" r="1" fill="rgba(255,255,255,0.07)"/><circle cx="150" cy="210" r="1" fill="rgba(255,255,255,0.03)"/><circle cx="150" cy="290" r="1" fill="rgba(255,255,255,0.05)"/><circle cx="150" cy="370" r="1" fill="rgba(255,255,255,0.07)"/><circle cx="150" cy="450" r="1" fill="rgba(255,255,255,0.03)"/><circle cx="150" cy="530" r="1" fill="rgba(255,255,255,0.05)"/><circle cx="150" cy="610" r="1" fill="rgba(255,255,255,0.07)"/><circle cx="250" cy="50" r="1" fill="rgba(255,255,255,0.07)"/><circle cx="250" cy="130" r="1" fill="rgba(255,255,255,0.03)"/><circle cx="250" cy="210" r="1" fill="rgba(255,255,255,0.05)"/><circle cx="250" cy="290" r="1" fill="rgba(255,255,255,0.07)"/><circle cx="250" cy="370" r="1" fill="rgba(255,255,255,0.03)"/><circle cx="250" cy="450" r="1" fill="rgba(255,255,255,0.05)"/><circle cx="250" cy="530" r="1" fill="rgba(255,255,255,0.07)"/><circle cx="250" cy="610" r="1" fill="rgba(255,255,255,0.03)"/><circle cx="350" cy="50" r="1" fill="rgba(255,255,255,0.03)"/><circle cx="350" cy="130" r="1" fill="rgba(255,255,255,0.05)"/><circle cx="350" cy="210" r="1" fill="rgba(255,255,255,0.07)"/><circle cx="350" cy="290" r="1" fill="rgba(255,255,255,0.03)"/><circle cx="350" cy="370" r="1" fill="rgba(255,255,255,0.05)"/><circle cx="350" cy="450" r="1" fill="rgba(255,255,255,0.07)"/><circle cx="350" cy="530" r="1" fill="rgba(255,255,255,0.03)"/><circle cx="350" cy="610" r="1" fill="rgba(255,255,255,0.05)"/><circle cx="450" cy="50" r="1" fill="rgba(255,255,255,0.05)"/><circle cx="450" cy="130" r="1" fill="rgba(255,255,255,0.07)"/><circle cx="450" cy="210" r="1" fill="rgba(255,255,255,0.03)"/><circle cx="450" cy="290" r="1" fill="rgba(255,255,255,0.05)"/><circle cx="450" cy="370" r="1" fill="rgba(255,255,255,0.07)"/><circle cx="450" cy="450" r="1" fill="rgba(255,255,255,0.03)"/><circle cx="450" cy="530" r="1" fill="rgba(255,255,255,0.05)"/><circle cx="450" cy="610" r="1" fill="rgba(255,255,255,0.07)"/><circle cx="550" cy="50" r="1" fill="rgba(255,255,255,0.07)"/><circle cx="550" cy="130" r="1" fill="rgba(255,255,255,0.03)"/><circle cx="550" cy="210" r="1" fill="rgba(255,255,255,0.05)"/><circle cx="550" cy="290" r="1" fill="rgba(255,255,255,0.07)"/><circle cx="550" cy="370" r="1" fill="rgba(255,255,255,0.03)"/><circle cx="550" cy="450" r="1" fill="rgba(255,255,255,0.05)"/><circle cx="550" cy="530" r="1" fill="rgba(255,255,255,0.07)"/><circle cx="550" cy="610" r="1" fill="rgba(255,255,255,0.03)"/><circle cx="650" cy="50" r="1" fill="rgba(255,255,255,0.03)"/><circle cx="650" cy="130" r="1" fill="rgba(255,255,255,0.05)"/><circle cx="650" cy="210" r="1" fill="rgba(255,255,255,0.07)"/><circle cx="650" cy="290" r="1" fill="rgba(255,255,255,0.03)"/><circle cx="650" cy="370" r="1" fill="rgba(255,255,255,0.05)"/><circle cx="650" cy="450" r="1" fill="rgba(255,255,255,0.07)"/><circle cx="650" cy="530" r="1" fill="rgba(255,255,255,0.03)"/><circle cx="650" cy="610" r="1" fill="rgba(255,255,255,0.05)"/><circle cx="750" cy="50" r="1" fill="rgba(255,255,255,0.05)"/><circle cx="750" cy="130" r="1" fill="rgba(255,255,255,0.07)"/><circle cx="750" cy="210" r="1" fill="rgba(255,255,255,0.03)"/><circle cx="750" cy="290" r="1" fill="rgba(255,255,255,0.05)"/><circle cx="750" cy="370" r="1" fill="rgba(255,255,255,0.07)"/><circle cx="750" cy="450" r="1" fill="rgba(255,255,255,0.03)"/><circle cx="750" cy="530" r="1" fill="rgba(255,255,255,0.05)"/><circle cx="750" cy="610" r="1" fill="rgba(255,255,255,0.07)"/><circle cx="850" cy="50" r="1" fill="rgba(255,255,255,0.07)"/><circle cx="850" cy="130" r="1" fill="rgba(255,255,255,0.03)"/><circle cx="850" cy="210" r="1" fill="rgba(255,255,255,0.05)"/><circle cx="850" cy="290" r="1" fill="rgba(255,255,255,0.07)"/><circle cx="850" cy="370" r="1" fill="rgba(255,255,255,0.03)"/><circle cx="850" cy="450" r="1" fill="rgba(255,255,255,0.05)"/><circle cx="850" cy="530" r="1" fill="rgba(255,255,255,0.07)"/><circle cx="850" cy="610" r="1" fill="rgba(255,255,255,0.03)"/><circle cx="950" cy="50" r="1" fill="rgba(255,255,255,0.03)"/><circle cx="950" cy="130" r="1" fill="rgba(255,255,255,0.05)"/><circle cx="950" cy="210" r="1" fill="rgba(255,255,255,0.07)"/><circle cx="950" cy="290" r="1" fill="rgba(255,255,255,0.03)"/><circle cx="950" cy="370" r="1" fill="rgba(255,255,255,0.05)"/><circle cx="950" cy="450" r="1" fill="rgba(255,255,255,0.07)"/><circle cx="950" cy="530" r="1" fill="rgba(255,255,255,0.03)"/><circle cx="950" cy="610" r="1" fill="rgba(255,255,255,0.05)"/><circle cx="1050" cy="50" r="1" fill="rgba(255,255,255,0.05)"/><circle cx="1050" cy="130" r="1" fill="rgba(255,255,255,0.07)"/><circle cx="1050" cy="210" r="1" fill="rgba(255,255,255,0.03)"/><circle cx="1050" cy="290" r="1" fill="rgba(255,255,255,0.05)"/><circle cx="1050" cy="370" r="1" fill="rgba(255,255,255,0.07)"/><circle cx="1050" cy="450" r="1" fill="rgba(255,255,255,0.03)"/><circle cx="1050" cy="530" r="1" fill="rgba(255,255,255,0.05)"/><circle cx="1050" cy="610" r="1" fill="rgba(255,255,255,0.07)"/><circle cx="1150" cy="50" r="1" fill="rgba(255,255,255,0.07)"/><circle cx="1150" cy="130" r="1" fill="rgba(255,255,255,0.03)"/><circle cx="1150" cy="210" r="1" fill="rgba(255,255,255,0.05)"/><circle cx="1150" cy="290" r="1" fill="rgba(255,255,255,0.07)"/><circle cx="1150" cy="370" r="1" fill="rgba(255,255,255,0.03)"/><circle cx="1150" cy="450" r="1" fill="rgba(255,255,255,0.05)"/><circle cx="1150" cy="530" r="1" fill="rgba(255,255,255,0.07)"/><circle cx="1150" cy="610" r="1" fill="rgba(255,255,255,0.03)"/>
  
  <!-- Subtle border -->
  <rect x="1" y="1" width="1198" height="628" rx="12" fill="none" stroke="rgba(255,255,255,0.06)" stroke-width="1"/>
  
  <!-- Tech icon / illustration -->
  <path d="M600 225 L645 245 L645 290 Q645 320 600 340 Q555 320 555 290 L555 245 Z" fill="none" stroke="#22c55e" stroke-width="2.5" opacity="0.6"/><path d="M585 280 L600 295 L625 260" fill="none" stroke="#22c55e" stroke-width="3" opacity="0.8"/>
  
  <!-- Title -->
  <text x="600" y="430" text-anchor="middle" fill="url(#titleGrad)" font-family="Inter, -apple-system, sans-serif" font-size="42" font-weight="800" letter-spacing="-1">Security Shield</text>
  
  <!-- Subtitle -->
  <text x="600" y="468" text-anchor="middle" fill="rgba(255,255,255,0.5)" font-family="Inter, -apple-system, sans-serif" font-size="18" font-weight="400">DDoS protection, WAF, and real-time threat detection</text>
  
  <!-- Bottom bar -->
  <rect x="0" y="570" width="1200" height="60" fill="rgba(0,0,0,0.3)"/>
  
  <!-- Logo text -->
  <text x="60" y="606" fill="#fff" font-family="Space Grotesk, Inter, sans-serif" font-size="22" font-weight="700" opacity="0.9">Go</text>
  <text x="88" y="606" fill="#0074D9" font-family="Space Grotesk, Inter, sans-serif" font-size="22" font-weight="700">Site</text>
  <text x="123" y="606" fill="#7D00FF" font-family="Space Grotesk, Inter, sans-serif" font-size="22" font-weight="700">Me</text>
  
  <!-- Website URL -->
  <text x="1140" y="606" text-anchor="end" fill="rgba(255,255,255,0.4)" font-family="Inter, sans-serif" font-size="14">gositeme.com</text>
  
  <!-- GoCodeMe mention -->
  <text x="600" y="606" text-anchor="middle" fill="rgba(255,255,255,0.25)" font-family="Inter, sans-serif" font-size="12">Powered by GoCodeMe • gocodeme.com</text>
  
  <!-- Accent line -->
  <rect x="520" y="490" width="160" height="2" rx="1" fill="url(#titleGrad)" opacity="0.4"/>
</svg>