<?xml version="1.0" encoding="UTF-8"?>
<svg width="800" height="600" viewBox="0 0 800 600" fill="none" xmlns="http://www.w3.org/2000/svg">
    <!-- Background -->
    <rect width="800" height="600" fill="#FFFFFF"/>
    
    <!-- Hero Section -->
    <rect x="0" y="0" width="800" height="300" fill="#F5F3FF"/>
    <rect x="40" y="60" width="400" height="60" fill="#2F1C6A"/>
    <rect x="40" y="140" width="300" height="16" fill="#727586" fill-opacity="0.6"/>
    <rect x="40" y="166" width="280" height="16" fill="#727586" fill-opacity="0.6"/>
    <rect x="40" y="220" width="160" height="40" rx="4" fill="#FC5185"/>
    
    <!-- Features Section -->
    <g transform="translate(40, 340)">
        <rect width="220" height="220" rx="8" fill="#F8F9FA"/>
        <circle cx="110" cy="80" r="40" fill="#673DE6" fill-opacity="0.1"/>
        <rect x="60" y="140" width="100" height="12" fill="#2F1C6A"/>
        <rect x="40" y="160" width="140" height="8" fill="#727586" fill-opacity="0.6"/>
        <rect x="40" y="176" width="140" height="8" fill="#727586" fill-opacity="0.6"/>
    </g>
    
    <g transform="translate(290, 340)">
        <rect width="220" height="220" rx="8" fill="#F8F9FA"/>
        <circle cx="110" cy="80" r="40" fill="#673DE6" fill-opacity="0.1"/>
        <rect x="60" y="140" width="100" height="12" fill="#2F1C6A"/>
        <rect x="40" y="160" width="140" height="8" fill="#727586" fill-opacity="0.6"/>
        <rect x="40" y="176" width="140" height="8" fill="#727586" fill-opacity="0.6"/>
    </g>
    
    <g transform="translate(540, 340)">
        <rect width="220" height="220" rx="8" fill="#F8F9FA"/>
        <circle cx="110" cy="80" r="40" fill="#673DE6" fill-opacity="0.1"/>
        <rect x="60" y="140" width="100" height="12" fill="#2F1C6A"/>
        <rect x="40" y="160" width="140" height="8" fill="#727586" fill-opacity="0.6"/>
        <rect x="40" y="176" width="140" height="8" fill="#727586" fill-opacity="0.6"/>
    </g>
    
    <!-- Decorative Elements -->
    <circle cx="600" cy="120" r="120" fill="#DDD6FE" fill-opacity="0.3"/>
    <circle cx="650" cy="150" r="80" fill="#673DE6" fill-opacity="0.1"/>
    
    <!-- Small Dots -->
    <circle cx="550" cy="50" r="4" fill="#673DE6" fill-opacity="0.3"/>
    <circle cx="720" cy="180" r="4" fill="#673DE6" fill-opacity="0.3"/>
    <circle cx="680" cy="80" r="4" fill="#673DE6" fill-opacity="0.3"/>
</svg> 